<svg width="59" height="59" viewBox="0 0 59 59" fill="none" xmlns="http://www.w3.org/2000/svg">
<g filter="url(#filter0_d)">
<circle cx="29.5" cy="25.5" r="22.5" fill="#545454"/>
</g>
<path d="M25.1739 32.1237L25.9726 32.5507C27.2104 33.2124 28.5927 33.5577 29.9963 33.5555L30 33.5555C34.7253 33.5555 38.5556 29.7253 38.5556 25C38.5556 20.2747 34.7253 16.4444 30 16.4444C25.2747 16.4444 21.4445 20.2747 21.4445 25V25.0037C21.4423 26.4073 21.7876 27.7896 22.4493 29.0274L22.8763 29.8261L22.2197 32.7803L25.1739 32.1237ZM19 36L20.2936 30.1799C19.4417 28.5864 18.9973 26.8069 19 25C19 18.9247 23.9247 14 30 14C36.0753 14 41 18.9247 41 25C41 31.0753 36.0753 36 30 36C28.1931 36.0027 26.4136 35.5583 24.8201 34.7064L19 36Z" fill="white"/>
<defs>
<filter id="filter0_d" x="0" y="0" width="59" height="59" filterUnits="userSpaceOnUse" color-interpolation-filters="sRGB">
<feFlood flood-opacity="0" result="BackgroundImageFix"/>
<feColorMatrix in="SourceAlpha" type="matrix" values="0 0 0 0 0 0 0 0 0 0 0 0 0 0 0 0 0 0 127 0" result="hardAlpha"/>
<feOffset dy="4"/>
<feGaussianBlur stdDeviation="3.5"/>
<feComposite in2="hardAlpha" operator="out"/>
<feColorMatrix type="matrix" values="0 0 0 0 0 0 0 0 0 0 0 0 0 0 0 0 0 0 0.25 0"/>
<feBlend mode="normal" in2="BackgroundImageFix" result="effect1_dropShadow"/>
<feBlend mode="normal" in="SourceGraphic" in2="effect1_dropShadow" result="shape"/>
</filter>
</defs>
</svg>
