<svg width="48" height="45" viewBox="0 0 48 45" fill="none" xmlns="http://www.w3.org/2000/svg">
<path d="M24.0606 0.0833746C12.6435 0.0819343 2.91086 8.21417 1.08289 19.2828C-0.745083 30.3514 5.87134 41.0881 16.7036 44.6311C17.8703 44.8373 18.288 44.1338 18.288 43.5288C18.288 42.9857 18.2693 41.5465 18.2623 39.633C11.7873 41.008 10.42 36.5667 10.42 36.5667C9.99369 35.1847 9.0773 33.9985 7.83696 33.2232C5.73696 31.8046 7.99795 31.8367 7.99795 31.8367C9.49287 32.038 10.8086 32.908 11.561 34.1925C12.1978 35.3298 13.2707 36.1701 14.5413 36.5269C15.8119 36.8836 17.175 36.7272 18.3276 36.0923C18.4359 34.9328 18.9612 33.849 19.8093 33.0353C14.6433 32.46 9.21129 30.4984 9.21129 21.7373C9.18262 19.4713 10.0394 17.2807 11.6053 15.6163C10.8968 13.6439 10.9802 11.4804 11.8386 9.56629C11.8386 9.56629 13.7916 8.94983 18.2366 11.9061C22.0489 10.8794 26.0723 10.8794 29.8846 11.9061C34.332 8.94754 36.2826 9.56629 36.2826 9.56629C37.145 11.4795 37.2285 13.6445 36.516 15.6163C38.0876 17.2806 38.9436 19.4769 38.9053 21.7465C38.9053 30.5305 33.4686 32.46 28.284 33.0261C29.4024 34.1491 29.976 35.6898 29.859 37.2565C29.859 40.3136 29.831 42.7794 29.831 43.5288C29.831 44.1407 30.2463 44.8511 31.434 44.6265C42.2617 41.0775 48.8711 30.3402 47.0393 19.2745C45.2076 8.20883 35.4754 0.0808093 24.0606 0.0833746Z" fill="white"/>
</svg>
