<svg width="44" height="44" viewBox="0 0 44 44" fill="none" xmlns="http://www.w3.org/2000/svg">
<path d="M22.0049 43.8491C16.0599 43.8491 15.359 43.8177 13.0391 43.7162C11.2299 43.6567 9.4441 43.2889 7.75863 42.6287C4.84247 41.4938 2.53656 39.187 1.4028 36.2704C0.767956 34.5788 0.425543 32.7916 0.390216 30.9852C0.254883 28.67 0.254883 27.9112 0.254883 22.0121C0.254883 16.0502 0.286299 15.3542 0.390216 13.0463C0.426315 11.2423 0.768717 9.45752 1.4028 7.76825C2.53533 4.84778 4.84498 2.539 7.76588 1.40758C9.45427 0.770074 11.2395 0.426767 13.0439 0.392585C15.3518 0.262085 16.1106 0.262085 22.0049 0.262085C27.9982 0.262085 28.687 0.293502 30.9707 0.392585C32.7798 0.427063 34.5697 0.770333 36.2632 1.40758C39.1833 2.54028 41.4925 4.84862 42.6263 7.76825C43.2719 9.48214 43.6161 11.2948 43.6437 13.126C43.779 15.4412 43.7791 16.1976 43.7791 22.0943C43.7791 27.9909 43.7452 28.7642 43.6437 31.0528C43.6077 32.861 43.2645 34.6499 42.6287 36.3429C41.4921 39.2615 39.1827 41.5691 36.2632 42.7036C34.5721 43.3372 32.7859 43.6796 30.9804 43.7162C28.6725 43.8491 27.916 43.8491 22.0049 43.8491ZM21.9227 4.08767C16.0116 4.08767 15.3977 4.11667 13.0898 4.22058C11.7123 4.23883 10.348 4.49304 9.05638 4.97217C7.14904 5.70202 5.63976 7.20515 4.90213 9.1095C4.41931 10.4152 4.16507 11.7944 4.15055 13.1864C4.02247 15.5282 4.02247 16.142 4.02247 22.0121C4.02247 27.8121 4.04422 28.5153 4.15055 30.8426C4.17218 32.2206 4.42628 33.585 4.90213 34.8784C5.64085 36.7815 7.14986 38.2835 9.05638 39.0133C10.3472 39.4956 11.7119 39.75 13.0898 39.7649C15.4291 39.9002 16.0454 39.9002 21.9227 39.9002C27.8508 39.9002 28.4646 39.8713 30.7532 39.7649C32.1317 39.7481 33.497 39.4939 34.7891 39.0133C36.6848 38.2772 38.1843 36.7786 38.9216 34.8833C39.4034 33.5764 39.6576 32.1967 39.6731 30.8039H39.6997C39.8036 28.4936 39.8036 27.8773 39.8036 21.9734C39.8036 16.0695 39.7771 15.4484 39.6731 13.1405C39.6515 11.7641 39.3974 10.4012 38.9216 9.1095C38.186 7.21139 36.6863 5.70996 34.7891 4.97217C33.4972 4.49063 32.1318 4.23634 30.7532 4.22058C28.4163 4.08767 27.8049 4.08767 21.9227 4.08767ZM22.0049 33.1747C17.4857 33.1776 13.4098 30.4577 11.6781 26.2834C9.94646 22.1092 10.9001 17.3028 14.0942 14.1059C17.2884 10.9089 22.094 9.95115 26.2697 11.6792C30.4455 13.4073 33.1689 17.4808 33.1699 22C33.1632 28.1651 28.1699 33.1627 22.0049 33.1747ZM22.0049 14.7452C18.0008 14.7452 14.7549 17.9911 14.7549 21.9952C14.7549 25.9992 18.0008 29.2452 22.0049 29.2452C26.0089 29.2452 29.2549 25.9992 29.2549 21.9952C29.2456 17.995 26.0051 14.7545 22.0049 14.7452ZM33.6049 13.0221C32.168 13.0167 31.0067 11.849 31.0094 10.4121C31.0121 8.9752 32.1776 7.81177 33.6145 7.81177C35.0514 7.81177 36.217 8.97518 36.2197 10.4121C36.2204 11.1053 35.9449 11.7703 35.4543 12.2601C34.9636 12.7498 34.2981 13.024 33.6049 13.0221Z" fill="white"/>
</svg>
