<svg width="40" height="42" viewBox="0 0 40 42" fill="none" xmlns="http://www.w3.org/2000/svg">
<path fill-rule="evenodd" clip-rule="evenodd" d="M7.03442 7.56141C8.31775 8.60412 8.799 8.52496 11.2094 8.3635L33.9302 6.99891C34.4125 6.99891 34.0115 6.5187 33.8511 6.4385L30.0782 3.71037C29.3552 3.14891 28.3917 2.50621 26.5459 2.66662L4.54587 4.27079C3.74379 4.34996 3.58337 4.751 3.90317 5.07287L7.03442 7.56141ZM8.39796 12.8562V36.7625C8.39796 38.0468 9.03962 38.5281 10.4855 38.4489L35.4552 37.0041C36.9011 36.925 37.0625 36.0406 37.0625 34.9968V11.251C37.0625 10.2093 36.6615 9.64683 35.7771 9.72704L9.68337 11.251C8.71983 11.3312 8.39796 11.8135 8.39796 12.8562ZM33.048 14.1385C33.2084 14.8614 33.048 15.5833 32.324 15.6645L31.1209 15.9041V33.5531C30.0761 34.1145 29.1125 34.4354 28.3105 34.4354C27.025 34.4354 26.7032 34.0343 25.7407 32.8312L17.8709 20.477V32.4302L20.3615 32.9916C20.3615 32.9916 20.3615 34.4354 18.3521 34.4354L12.8136 34.7562C12.6532 34.4354 12.8136 33.6333 13.375 33.4729L14.8209 33.0718V17.2687L12.8136 17.1083C12.6521 16.3854 13.0532 15.3437 14.1782 15.2625L20.1198 14.8614L28.3094 27.377V16.3052L26.2209 16.0656C26.0605 15.1822 26.7021 14.5406 27.5052 14.4614L33.048 14.1385ZM2.69692 2.10621L25.5802 0.420789C28.3907 0.180164 29.1136 0.341622 30.8792 1.62391L38.1844 6.75829C39.3896 7.64162 39.7917 7.88225 39.7917 8.84371V37.002C39.7917 38.7666 39.149 39.8104 36.9011 39.9697L10.3261 41.575C8.63858 41.6552 7.83546 41.4145 6.95212 40.2916L1.57296 33.3125C0.609416 32.0281 0.208374 31.0666 0.208374 29.9427V4.91246C0.208374 3.46975 0.851082 2.26558 2.69692 2.10621Z" fill="white"/>
</svg>
