<svg width="50" height="34" viewBox="0 0 50 34" fill="none" xmlns="http://www.w3.org/2000/svg">
<path d="M25.0146 33.9457H24.9662C24.8164 33.9457 9.8258 33.9167 6.04372 32.8896C3.96399 32.3294 2.33981 30.7043 1.78072 28.6242C1.10062 24.7874 0.772197 20.8965 0.799551 17C0.78198 13.0972 1.11929 9.20076 1.8073 5.35896C2.38176 3.27703 3.9988 1.64442 6.07513 1.05004C9.7533 0.083374 24.3306 0.083374 24.9493 0.083374H25.0001C25.1523 0.083374 40.1815 0.112374 43.925 1.13946C46.0003 1.70256 47.6212 3.32436 48.1831 5.40004C48.8849 9.2511 49.2143 13.1608 49.1667 17.075C49.1837 20.9731 48.8455 24.8647 48.1566 28.7015C47.5902 30.779 45.965 32.4005 43.8863 32.9621C40.213 33.936 25.6332 33.9457 25.0146 33.9457ZM20.1812 9.76213L20.1691 24.2621L32.7648 17.0121L20.1812 9.76213Z" fill="white"/>
</svg>
